<?xml version="1.0" encoding="UTF-8" standalone="no"?>
<svg
   xmlns:dc="http://purl.org/dc/elements/1.1/"
   xmlns:cc="http://creativecommons.org/ns#"
   xmlns:rdf="http://www.w3.org/1999/02/22-rdf-syntax-ns#"
   xmlns:svg="http://www.w3.org/2000/svg"
   xmlns="http://www.w3.org/2000/svg"
   xmlns:sodipodi="http://sodipodi.sourceforge.net/DTD/sodipodi-0.dtd"
   xmlns:inkscape="http://www.inkscape.org/namespaces/inkscape"
   width="120pt"
   height="119pt"
   viewBox="0 0 120 119"
   version="1.1"
   id="svg5"
   sodipodi:docname="vase.svg"
   inkscape:version="1.0.1 (3bc2e813f5, 2020-09-07)">
  <metadata
     id="metadata11">
    <rdf:RDF>
      <cc:Work
         rdf:about="">
        <dc:format>image/svg+xml</dc:format>
        <dc:type
           rdf:resource="http://purl.org/dc/dcmitype/StillImage" />
      </cc:Work>
    </rdf:RDF>
  </metadata>
  <defs
     id="defs9" />
  <sodipodi:namedview
     pagecolor="#ffffff"
     bordercolor="#666666"
     borderopacity="1"
     objecttolerance="10"
     gridtolerance="10"
     guidetolerance="10"
     inkscape:pageopacity="0"
     inkscape:pageshadow="2"
     inkscape:window-width="1366"
     inkscape:window-height="704"
     id="namedview7"
     showgrid="false"
     inkscape:zoom="3.0378151"
     inkscape:cx="16.632089"
     inkscape:cy="79.333333"
     inkscape:window-x="0"
     inkscape:window-y="0"
     inkscape:window-maximized="1"
     inkscape:current-layer="surface1" />
  <g
     id="surface1">
    <path
       style="stroke:none;fill-rule:nonzero;fill:#ffffff;fill-opacity:1;stroke-width:0.99974998;stroke-miterlimit:4;stroke-dasharray:none"
       d="M 88.929688 31.09375 C 85.128906 27.703125 81.25 26.527344 79.347656 26.132812 L 79.347656 10.855469 L 82.144531 8.199219 C 83.796875 7.953125 85.070312 6.542969 85.070312 4.835938 L 85.070312 3.40625 C 85.070312 1.527344 83.527344 0 81.636719 0 L 38.378906 0 C 36.484375 0 34.945312 1.527344 34.945312 3.40625 L 34.945312 4.835938 C 34.945312 6.535156 36.207031 7.945312 37.851562 8.195312 L 40.652344 10.855469 L 40.652344 26.132812 C 38.75 26.527344 34.871094 27.703125 31.070312 31.09375 C 26.351562 35.296875 20.851562 43.871094 21.425781 60.839844 C 21.988281 77.546875 27.257812 91.289062 31.582031 99.878906 C 35.023438 106.71875 38.363281 111.394531 39.972656 113.488281 C 39.359375 114.070312 38.972656 114.886719 38.972656 115.796875 C 38.972656 117.5625 40.421875 119 42.207031 119 L 77.792969 119 C 79.574219 119 81.023438 117.5625 81.023438 115.796875 C 81.023438 114.886719 80.640625 114.070312 80.027344 113.484375 C 81.636719 111.394531 84.976562 106.71875 88.417969 99.878906 C 92.742188 91.289062 98.011719 77.546875 98.574219 60.839844 C 99.148438 43.871094 93.648438 35.296875 88.929688 31.09375 Z M 38.378906 5.644531 C 37.925781 5.644531 37.5625 5.28125 37.5625 4.835938 L 37.5625 3.40625 C 37.5625 2.957031 37.925781 2.59375 38.378906 2.59375 L 81.636719 2.59375 C 82.085938 2.59375 82.453125 2.957031 82.453125 3.40625 L 82.453125 4.835938 C 82.453125 5.28125 82.085938 5.644531 81.636719 5.644531 Z M 43.269531 19.464844 L 43.269531 15.890625 L 76.730469 15.890625 L 76.730469 19.464844 Z M 76.730469 22.058594 L 76.730469 25.9375 L 43.269531 25.9375 L 43.269531 22.058594 Z M 43.269531 13.296875 L 43.269531 10.300781 C 43.269531 9.945312 43.125 9.605469 42.867188 9.363281 L 41.683594 8.242188 L 78.316406 8.242188 L 77.132812 9.363281 C 76.875 9.605469 76.730469 9.945312 76.730469 10.300781 L 76.730469 13.296875 Z M 32.695312 33.132812 C 37.042969 29.195312 41.570312 28.585938 42.03125 28.53125 L 77.96875 28.53125 C 78.441406 28.585938 82.964844 29.203125 87.300781 33.132812 C 89.972656 35.550781 92.046875 38.742188 93.496094 42.625 C 91.535156 43.207031 90.265625 44.421875 89.121094 45.519531 C 87.65625 46.925781 86.496094 48.035156 84.023438 48.035156 C 81.550781 48.035156 80.394531 46.925781 78.925781 45.519531 C 77.339844 43.996094 75.542969 42.269531 72.011719 42.269531 C 68.476562 42.269531 66.679688 43.996094 65.09375 45.519531 C 63.628906 46.925781 62.472656 48.035156 60 48.035156 C 57.523438 48.035156 56.367188 46.925781 54.902344 45.519531 C 53.316406 43.996094 51.519531 42.269531 47.984375 42.269531 C 44.453125 42.269531 42.65625 43.996094 41.070312 45.519531 C 39.605469 46.925781 38.449219 48.035156 35.972656 48.035156 C 33.5 48.035156 32.34375 46.925781 30.878906 45.519531 C 29.734375 44.421875 28.464844 43.210938 26.503906 42.625 C 27.953125 38.742188 30.027344 35.550781 32.695312 33.132812 Z M 25.691406 45.09375 C 27.085938 45.492188 28.015625 46.382812 29.058594 47.382812 C 30.644531 48.90625 32.441406 50.632812 35.972656 50.632812 C 39.503906 50.632812 41.304688 48.90625 42.890625 47.382812 C 44.355469 45.976562 45.511719 44.863281 47.984375 44.863281 C 50.460938 44.863281 51.617188 45.976562 53.082031 47.382812 C 54.667969 48.90625 56.464844 50.632812 59.996094 50.632812 C 63.53125 50.632812 65.328125 48.90625 66.914062 47.382812 C 68.378906 45.976562 69.535156 44.863281 72.011719 44.863281 C 74.484375 44.863281 75.640625 45.976562 77.105469 47.382812 C 78.691406 48.90625 80.492188 50.632812 84.023438 50.632812 C 87.554688 50.632812 89.355469 48.90625 90.941406 47.382812 C 91.984375 46.382812 92.917969 45.5 94.3125 45.097656 C 95.117188 47.898438 95.636719 51.003906 95.863281 54.382812 C 93.128906 54.757812 91.5625 56.210938 90.160156 57.519531 C 88.710938 58.878906 87.460938 60.050781 84.871094 60.050781 C 82.277344 60.050781 81.011719 58.875 79.546875 57.515625 C 77.910156 56 76.058594 54.285156 72.433594 54.285156 C 68.808594 54.285156 66.957031 56 65.320312 57.515625 C 63.855469 58.875 62.589844 60.050781 59.996094 60.050781 C 57.40625 60.050781 56.136719 58.875 54.671875 57.515625 C 53.039062 56 51.1875 54.285156 47.5625 54.285156 C 43.9375 54.285156 42.085938 56 40.449219 57.515625 C 38.984375 58.875 37.71875 60.050781 35.125 60.050781 C 32.539062 60.050781 31.285156 58.878906 29.835938 57.519531 C 28.4375 56.210938 26.871094 54.757812 24.136719 54.382812 C 24.363281 51 24.882812 47.894531 25.691406 45.09375 Z M 77.792969 116.40625 L 42.207031 116.40625 C 41.867188 116.40625 41.589844 116.132812 41.589844 115.796875 C 41.589844 115.460938 41.867188 115.1875 42.207031 115.1875 L 77.792969 115.1875 C 78.132812 115.1875 78.410156 115.460938 78.410156 115.796875 C 78.410156 116.132812 78.132812 116.40625 77.792969 116.40625 Z M 77.414062 112.589844 L 42.585938 112.589844 C 41.703125 111.480469 39.339844 108.371094 36.585938 103.601562 L 83.4375 103.601562 C 80.679688 108.355469 78.300781 111.476562 77.414062 112.589844 Z M 84.886719 101.007812 L 35.140625 101.007812 C 34.777344 100.332031 34.410156 99.632812 34.042969 98.90625 L 85.984375 98.90625 C 85.617188 99.632812 85.25 100.332031 84.886719 101.007812 Z M 87.246094 96.3125 L 32.78125 96.3125 C 29.402344 89.101562 26.140625 79.839844 24.726562 69.0625 C 26.339844 69.429688 27.414062 70.371094 28.601562 71.441406 C 30.285156 72.949219 32.191406 74.660156 35.730469 74.660156 C 39.289062 74.660156 41.101562 72.933594 42.703125 71.414062 C 44.183594 70.003906 45.355469 68.890625 47.863281 68.890625 C 50.371094 68.890625 51.542969 70.003906 53.027344 71.414062 C 54.625 72.933594 56.4375 74.660156 60 74.660156 C 63.558594 74.660156 65.371094 72.933594 66.972656 71.414062 C 68.453125 70.003906 69.625 68.890625 72.132812 68.890625 C 74.640625 68.890625 75.8125 70.003906 77.296875 71.414062 C 78.894531 72.933594 80.707031 74.660156 84.269531 74.660156 C 87.804688 74.660156 89.714844 72.949219 91.398438 71.441406 C 92.589844 70.375 93.65625 69.421875 95.273438 69.054688 C 93.8125 80.171875 90.410156 89.542969 87.246094 96.3125 Z M 95.960938 60.753906 C 95.894531 62.667969 95.765625 64.539062 95.582031 66.367188 C 92.789062 66.703125 91.128906 68.1875 89.644531 69.515625 C 88.117188 70.882812 86.800781 72.0625 84.269531 72.0625 C 81.757812 72.0625 80.589844 70.949219 79.105469 69.542969 C 77.503906 68.019531 75.691406 66.296875 72.132812 66.296875 C 68.574219 66.296875 66.757812 68.019531 65.160156 69.542969 C 63.675781 70.949219 62.507812 72.0625 60 72.0625 C 57.492188 72.0625 56.320312 70.949219 54.835938 69.542969 C 53.234375 68.019531 51.421875 66.296875 47.863281 66.296875 C 44.304688 66.296875 42.492188 68.019531 40.890625 69.542969 C 39.40625 70.949219 38.238281 72.0625 35.730469 72.0625 C 33.199219 72.0625 31.882812 70.882812 30.359375 69.515625 C 28.875 68.183594 27.210938 66.703125 24.414062 66.371094 C 24.234375 64.539062 24.105469 62.664062 24.039062 60.753906 C 23.996094 59.46875 23.992188 58.214844 24.019531 56.992188 C 25.789062 57.3125 26.851562 58.296875 28.039062 59.40625 C 29.660156 60.925781 31.496094 62.644531 35.125 62.644531 C 38.753906 62.644531 40.605469 60.929688 42.238281 59.414062 C 43.703125 58.054688 44.96875 56.878906 47.5625 56.878906 C 50.15625 56.878906 51.421875 58.054688 52.886719 59.414062 C 54.519531 60.929688 56.371094 62.644531 60 62.644531 C 63.625 62.644531 65.476562 60.929688 67.109375 59.414062 C 68.574219 58.054688 69.839844 56.878906 72.433594 56.878906 C 75.027344 56.878906 76.292969 58.054688 77.757812 59.414062 C 79.394531 60.929688 81.246094 62.644531 84.871094 62.644531 C 88.5 62.644531 90.335938 60.925781 91.957031 59.40625 C 93.148438 58.292969 94.207031 57.304688 95.980469 56.988281 C 96.007812 58.210938 96.003906 59.464844 95.960938 60.753906 Z M 95.960938 60.753906 "
       id="path2" />
  </g>
</svg>
