<?xml version="1.0" encoding="UTF-8" standalone="no"?>
<svg
   xmlns:osb="http://www.openswatchbook.org/uri/2009/osb"
   xmlns:dc="http://purl.org/dc/elements/1.1/"
   xmlns:cc="http://creativecommons.org/ns#"
   xmlns:rdf="http://www.w3.org/1999/02/22-rdf-syntax-ns#"
   xmlns:svg="http://www.w3.org/2000/svg"
   xmlns="http://www.w3.org/2000/svg"
   xmlns:xlink="http://www.w3.org/1999/xlink"
   xmlns:sodipodi="http://sodipodi.sourceforge.net/DTD/sodipodi-0.dtd"
   xmlns:inkscape="http://www.inkscape.org/namespaces/inkscape"
   version="1.1"
   id="Capa_1"
   x="0px"
   y="0px"
   viewBox="0 0 412.751 412.751"
   style="enable-background:new 0 0 412.751 412.751;"
   xml:space="preserve"
   sodipodi:docname="vase.svg"
   inkscape:version="1.0.1 (3bc2e813f5, 2020-09-07)"><metadata
   id="metadata122"><rdf:RDF><cc:Work
       rdf:about=""><dc:format>image/svg+xml</dc:format><dc:type
         rdf:resource="http://purl.org/dc/dcmitype/StillImage" /></cc:Work></rdf:RDF></metadata><defs
   id="defs120"><linearGradient
     id="linearGradient949"
     osb:paint="solid"><stop
       style="stop-color:#ffffff;stop-opacity:1;"
       offset="0"
       id="stop947" /></linearGradient><linearGradient
     inkscape:collect="always"
     xlink:href="#linearGradient949"
     id="linearGradient951"
     x1="73.549694"
     y1="206.3755"
     x2="339.20031"
     y2="206.3755"
     gradientUnits="userSpaceOnUse"
     gradientTransform="matrix(0.24169126,0,0,0.24169126,55.394367,-0.37915419)" /></defs><sodipodi:namedview
   pagecolor="#ffffff"
   bordercolor="#666666"
   borderopacity="1"
   objecttolerance="10"
   gridtolerance="10"
   guidetolerance="10"
   inkscape:pageopacity="0"
   inkscape:pageshadow="2"
   inkscape:window-width="1366"
   inkscape:window-height="704"
   id="namedview118"
   showgrid="false"
   inkscape:zoom="1.2283435"
   inkscape:cx="49.660377"
   inkscape:cy="206.3755"
   inkscape:window-x="0"
   inkscape:window-y="0"
   inkscape:window-maximized="1"
   inkscape:current-layer="Capa_1" />
<path
   d="m 129.32433,25.687006 c -3.16131,-2.841564 -6.38499,-3.828148 -7.96831,-4.159748 V 8.7200384 l 2.32676,-2.2257348 c 1.37353,-0.2054376 2.43117,-1.3892414 2.43117,-2.819087 V 2.4747362 c 0,-1.57365179 -1.28023,-2.85389039 -2.85413,-2.85389039 H 87.298097 c -1.573894,0 -2.854132,1.2802386 -2.854132,2.85413209 v 1.2004805 c 0,1.4250116 1.050874,2.6059152 2.417638,2.8169116 l 2.328936,2.22791 v 12.806978 c -1.58332,0.3316 -4.806998,1.318184 -7.968318,4.159748 -3.920474,3.523858 -8.493998,10.710548 -8.017142,24.93698 0.46864,14.00335 4.849778,25.52598 8.442518,32.725962 2.861142,5.734368 5.637448,9.652908 6.97521,11.407102 -0.509486,0.489426 -0.82876,1.175104 -0.82876,1.935706 0,1.481326 1.205072,2.686398 2.686398,2.686398 h 29.585425 c 1.48133,0 2.6864,-1.205072 2.6864,-2.686398 0,-0.760602 -0.31903,-1.446522 -0.82876,-1.935946 1.338,-1.753954 4.11407,-5.672736 6.9752,-11.406862 3.59274,-7.199982 7.97388,-18.722372 8.443,-32.725962 0.47686,-14.226432 -4.09666,-21.413122 -8.01738,-24.93698 z M 87.298097,4.3541274 c -0.37438,0 -0.67891,-0.304531 -0.67891,-0.6789108 V 2.4747362 c 0,-0.3743798 0.30453,-0.6789108 0.67891,-0.6789108 h 35.961963 c 0.37438,0 0.67891,0.304531 0.67891,0.6789108 v 1.2004804 c 0,0.3743798 -0.30453,0.6789108 -0.67891,0.6789108 z m 4.067664,11.5840206 v -2.99528 h 27.815279 v 2.99528 z m 27.815279,2.175221 v 3.250263 H 91.365761 V 18.113369 Z M 91.365761,10.767647 V 8.2555078 c 0,-0.2970386 -0.12134,-0.5807842 -0.335952,-0.78598 l -0.982716,-0.940179 h 30.452377 l -0.98248,0.940179 c -0.21462,0.2051958 -0.33595,0.489183 -0.33595,0.78598 V 10.767647 Z M 82.575933,27.39528 c 3.61135,-3.298602 7.377626,-3.812196 7.758532,-3.856426 h 29.876425 c 0.39371,0.04568 4.15394,0.5629 7.7595,3.856426 2.21872,2.026822 3.9427,4.704036 5.15044,7.95841 -1.63166,0.489424 -2.68738,1.505012 -3.63868,2.425372 -1.21836,1.179452 -2.18052,2.11069 -4.23683,2.11069 -2.0568,0 -3.01897,-0.931478 -4.23734,-2.11069 -1.31866,-1.276372 -2.81304,-2.723136 -5.74983,-2.723136 -2.93679,0 -4.43141,1.446764 -5.74984,2.723378 -1.21812,1.17921 -2.18005,2.110448 -4.23636,2.110448 -2.05631,0 -3.01824,-0.931478 -4.23636,-2.110448 -1.318429,-1.276372 -2.813049,-2.723378 -5.749839,-2.723378 -2.936548,0 -4.430926,1.446522 -5.749352,2.723136 -1.218124,1.179452 -2.180054,2.11069 -4.236364,2.11069 -2.05631,0 -3.01824,-0.931478 -4.236122,-2.11069 -0.950814,-0.920602 -2.006764,-1.935222 -3.637938,-2.424164 1.207006,-3.254856 2.931232,-5.932554 5.149958,-7.959618 z m -5.82476,10.02632 c 1.160602,0.33571 1.932806,1.080844 2.799268,1.919996 1.318426,1.276372 2.812804,2.723376 5.749352,2.723376 2.93655,0 4.430926,-1.446522 5.749352,-2.723134 1.218124,-1.179454 2.180298,-2.11069 4.236364,-2.11069 2.056552,0 3.018724,0.93172 4.236848,2.11069 1.318423,1.27637 2.812803,2.723134 5.749353,2.723134 2.93655,0 4.43092,-1.446522 5.74935,-2.723134 1.21812,-1.179212 2.1803,-2.11069 4.23685,-2.11069 2.05655,0 3.01872,0.931478 4.23685,2.11069 1.31866,1.27637 2.81328,2.723134 5.75031,2.723134 2.93654,0 4.43116,-1.446522 5.74984,-2.723134 0.86646,-0.838912 1.64252,-1.579212 2.80192,-1.915162 0.66948,2.346822 1.10138,4.949594 1.29112,7.783666 -2.27384,0.3142 -3.57752,1.532564 -4.7403,2.630326 -1.20506,1.137642 -2.24578,2.120358 -4.39853,2.120358 -2.1554,0 -3.20797,-0.984166 -4.42682,-2.123742 -1.35854,-1.270328 -2.89836,-2.710084 -5.91273,-2.710084 -3.01389,0 -4.55347,1.439756 -5.91177,2.710084 -1.21861,1.139576 -2.27093,2.123742 -4.42633,2.123742 -2.15541,0 -3.20797,-0.984166 -4.42658,-2.123742 -1.358303,-1.270328 -2.897877,-2.710084 -5.911767,-2.710084 -3.01389,0 -4.553462,1.439756 -5.911768,2.710084 -1.218606,1.139576 -2.27093,2.123742 -4.426092,2.123742 -2.152018,0 -3.1925,-0.982474 -4.397088,-2.119874 -1.162778,-1.098246 -2.465976,-2.316128 -4.739566,-2.630084 0.18996,-2.836248 0.622354,-5.440954 1.292564,-7.789468 z M 120.06611,97.203934 H 90.480687 c -0.281812,0 -0.511176,-0.229366 -0.511176,-0.511178 0,-0.281812 0.229364,-0.510936 0.511176,-0.510936 h 29.585423 c 0.28182,0 0.51118,0.229124 0.51118,0.510936 0,0.281812 -0.22936,0.511178 -0.51118,0.511178 z M 119.7495,94.0066 H 90.797787 c -0.735468,-0.932446 -2.698484,-3.53836 -4.9902,-7.53545 h 38.950233 c -2.29244,3.985488 -4.26923,6.60083 -5.00832,7.53545 z m 6.21364,-9.710672 H 84.605897 C 84.304751,83.73037 84.000703,83.14306 83.695931,82.534966 h 43.177899 c -0.30477,0.60737 -0.60882,1.195404 -0.91069,1.760962 z m 1.96059,-3.936184 H 82.645057 c -2.80942,-6.04349 -5.52047,-13.809514 -6.695574,-22.84369 1.341388,0.307188 2.233228,1.098728 3.222954,1.993468 1.398426,1.26453 2.983678,2.697758 5.924578,2.697758 2.958542,0 4.466212,-1.444588 5.795998,-2.719268 1.232866,-1.181386 2.2064,-2.114556 4.29147,-2.114556 2.084828,0 3.058602,0.93317 4.29147,2.114556 1.330027,1.274438 2.837217,2.719268 5.796237,2.719268 2.95903,0 4.46646,-1.444588 5.79648,-2.71951 1.23263,-1.181386 2.20616,-2.114314 4.29075,-2.114314 2.08507,0 3.05884,0.932928 4.29195,2.114556 1.33027,1.274438 2.8377,2.719268 5.79721,2.719268 2.94065,0 4.52711,-1.433228 5.92699,-2.697274 0.99094,-0.894982 1.87794,-1.692806 3.22006,-1.999754 -1.21426,9.319374 -4.04012,17.173614 -6.6719,22.849492 z m 7.24446,-29.808508 c -0.0538,1.603622 -0.162,3.17244 -0.31396,4.706454 -2.3229,0.279636 -3.7032,1.524106 -4.93702,2.63806 -1.26912,1.146342 -2.3652,2.13655 -4.46887,2.13655 -2.08556,0 -3.05933,-0.93317 -4.29244,-2.114556 -1.33027,-1.27468 -2.8377,-2.719268 -5.79672,-2.719268 -2.95855,0 -4.46622,1.44483 -5.79576,2.719268 -1.23287,1.181386 -2.2064,2.114556 -4.29147,2.114556 -2.08483,0 -3.0586,-0.93317 -4.29147,-2.114556 -1.330027,-1.274438 -2.837213,-2.719268 -5.796239,-2.719268 -2.959026,0 -4.466454,1.44483 -5.796482,2.71951 -1.232624,1.181386 -2.206158,2.114314 -4.290744,2.114314 -2.103198,0 -3.197818,-0.989966 -4.465488,-2.136066 -1.233108,-1.115164 -2.6151,-2.357216 -4.940412,-2.635886 -0.15178,-1.53643 -0.258368,-3.106458 -0.312022,-4.70887 -0.03602,-1.078426 -0.04084,-2.129058 -0.0174,-3.153588 1.472624,0.26707 2.354798,1.091962 3.343314,2.02489 1.346946,1.272262 2.873952,2.71395 5.890742,2.71395 3.01389,0 4.553464,-1.439754 5.911768,-2.710084 1.218608,-1.139574 2.270932,-2.12374 4.426092,-2.12374 2.155162,0 3.207484,0.983924 4.426092,2.1235 1.358299,1.27057 2.898119,2.710324 5.912249,2.710324 3.01389,0 4.55346,-1.439754 5.91177,-2.710084 1.21861,-1.139574 2.27093,-2.12374 4.42609,-2.12374 2.15589,0 3.20821,0.984166 4.42706,2.12374 1.35855,1.27033 2.89836,2.710084 5.91225,2.710084 3.01703,0 4.54451,-1.441688 5.89171,-2.713708 0.98972,-0.934138 1.86948,-1.762656 3.34452,-2.02924 0.0236,1.025496 0.018,2.077578 -0.018,3.157454 z"
   id="path85"
   style="fill:#000000;fill-opacity:0;stroke:url(#linearGradient951);stroke-width:0.241692" />
<g
   id="g87">
</g>
<g
   id="g89">
</g>
<g
   id="g91">
</g>
<g
   id="g93">
</g>
<g
   id="g95">
</g>
<g
   id="g97">
</g>
<g
   id="g99">
</g>
<g
   id="g101">
</g>
<g
   id="g103">
</g>
<g
   id="g105">
</g>
<g
   id="g107">
</g>
<g
   id="g109">
</g>
<g
   id="g111">
</g>
<g
   id="g113">
</g>
<g
   id="g115">
</g>
</svg>
